<svg width="18" height="19" viewBox="0 0 18 19" fill="none" xmlns="http://www.w3.org/2000/svg">
<path d="M8.25 10.25V12.5C8.25 12.7125 8.322 12.8907 8.466 13.0347C8.61 13.1787 8.788 13.2505 9 13.25C9.2125 13.25 9.39075 13.178 9.53475 13.034C9.67875 12.89 9.7505 12.712 9.75 12.5V10.25H12C12.2125 10.25 12.3907 10.178 12.5347 10.034C12.6787 9.89 12.7505 9.712 12.75 9.5C12.75 9.2875 12.678 9.10925 12.534 8.96525C12.39 8.82125 12.212 8.7495 12 8.75H9.75V6.5C9.75 6.2875 9.678 6.10925 9.534 5.96525C9.39 5.82125 9.212 5.7495 9 5.75C8.7875 5.75 8.60925 5.822 8.46525 5.966C8.32125 6.11 8.2495 6.288 8.25 6.5V8.75H6C5.7875 8.75 5.60925 8.822 5.46525 8.966C5.32125 9.11 5.2495 9.288 5.25 9.5C5.25 9.7125 5.322 9.89075 5.466 10.0348C5.61 10.1788 5.788 10.2505 6 10.25H8.25ZM9 17C7.9625 17 6.9875 16.803 6.075 16.409C5.1625 16.015 4.36875 15.4808 3.69375 14.8063C3.01875 14.1313 2.4845 13.3375 2.091 12.425C1.6975 11.5125 1.5005 10.5375 1.5 9.5C1.5 8.4625 1.697 7.4875 2.091 6.575C2.485 5.6625 3.01925 4.86875 3.69375 4.19375C4.36875 3.51875 5.1625 2.9845 6.075 2.591C6.9875 2.1975 7.9625 2.0005 9 2C10.0375 2 11.0125 2.197 11.925 2.591C12.8375 2.985 13.6313 3.51925 14.3063 4.19375C14.9813 4.86875 15.5157 5.6625 15.9097 6.575C16.3037 7.4875 16.5005 8.4625 16.5 9.5C16.5 10.5375 16.303 11.5125 15.909 12.425C15.515 13.3375 14.9808 14.1313 14.3063 14.8063C13.6313 15.4813 12.8375 16.0157 11.925 16.4097C11.0125 16.8037 10.0375 17.0005 9 17ZM9 15.5C10.675 15.5 12.0937 14.9187 13.2562 13.7562C14.4187 12.5937 15 11.175 15 9.5C15 7.825 14.4187 6.40625 13.2562 5.24375C12.0937 4.08125 10.675 3.5 9 3.5C7.325 3.5 5.90625 4.08125 4.74375 5.24375C3.58125 6.40625 3 7.825 3 9.5C3 11.175 3.58125 12.5937 4.74375 13.7562C5.90625 14.9187 7.325 15.5 9 15.5Z" fill="white"/>
</svg>
