<svg width="6" height="9" viewBox="0 0 6 9" fill="none" xmlns="http://www.w3.org/2000/svg">
<path d="M0.266469 0.225507C0.181999 0.296525 0.114984 0.380881 0.0692601 0.473747C0.0235359 0.566612 0 0.666163 0 0.766701C0 0.867239 0.0235359 0.96679 0.0692601 1.05966C0.114984 1.15252 0.181999 1.23688 0.266469 1.3079L3.80184 4.28638L0.266469 7.26487C0.0960988 7.4084 0.000385821 7.60308 0.000385821 7.80606C0.000385821 8.00905 0.0960988 8.20373 0.266469 8.34726C0.436838 8.49079 0.667909 8.57143 0.908848 8.57143C1.14979 8.57143 1.38086 8.49079 1.55123 8.34726L5.73353 4.82374C5.818 4.75272 5.88502 4.66836 5.93074 4.5755C5.97647 4.48263 6 4.38308 6 4.28255C6 4.18201 5.97647 4.08246 5.93074 3.98959C5.88502 3.89673 5.818 3.81237 5.73353 3.74135L1.55123 0.21783C1.20498 -0.0738772 0.621828 -0.073877 0.266469 0.225507Z" fill="white"/>
</svg>
