<svg width="18" height="18" viewBox="0 0 18 18" fill="none" xmlns="http://www.w3.org/2000/svg">
<path fill-rule="evenodd" clip-rule="evenodd" d="M9 3C9 3.19891 9.07902 3.38968 9.21967 3.53033C9.36032 3.67098 9.55109 3.75 9.75 3.75H13.1895L9.21975 7.71975C9.11489 7.82464 9.04349 7.95826 9.01456 8.10373C8.98564 8.24919 9.00049 8.39997 9.05724 8.53699C9.11399 8.67402 9.2101 8.79114 9.33341 8.87355C9.45671 8.95596 9.60169 8.99997 9.75 9H15C15.1989 9 15.3897 8.92098 15.5303 8.78033C15.671 8.63968 15.75 8.44891 15.75 8.25C15.75 8.05109 15.671 7.86032 15.5303 7.71967C15.3897 7.57902 15.1989 7.5 15 7.5H11.5605L15.5303 3.53025C15.6351 3.42536 15.7065 3.29174 15.7354 3.14627C15.7644 3.00081 15.7495 2.85003 15.6928 2.71301C15.636 2.57598 15.5399 2.45886 15.4166 2.37645C15.2933 2.29404 15.1483 2.25003 15 2.25H9.75C9.55109 2.25 9.36032 2.32902 9.21967 2.46967C9.07902 2.61032 9 2.80109 9 3ZM3 7.5C2.80109 7.5 2.61032 7.42098 2.46967 7.28033C2.32902 7.13968 2.25 6.94891 2.25 6.75C2.25 6.55109 2.32902 6.36032 2.46967 6.21967C2.61032 6.07902 2.80109 6 3 6H6.75C6.89831 6.00003 7.04329 6.04404 7.16659 6.12645C7.2899 6.20886 7.38601 6.32598 7.44276 6.46301C7.49951 6.60003 7.51436 6.75081 7.48544 6.89627C7.45651 7.04174 7.38511 7.17536 7.28025 7.28025L4.8105 9.75H6.75C6.94891 9.75 7.13968 9.82902 7.28033 9.96967C7.42098 10.1103 7.5 10.3011 7.5 10.5C7.5 10.6989 7.42098 10.8897 7.28033 11.0303C7.13968 11.171 6.94891 11.25 6.75 11.25H3C2.85169 11.25 2.70671 11.206 2.58341 11.1236C2.4601 11.0411 2.36399 10.924 2.30724 10.787C2.25049 10.65 2.23564 10.4992 2.26456 10.3537C2.29349 10.2083 2.36489 10.0746 2.46975 9.96975L4.9395 7.5H3ZM9 12.75C8.80109 12.75 8.61032 12.671 8.46967 12.5303C8.32902 12.3897 8.25 12.1989 8.25 12C8.25 11.8011 8.32902 11.6103 8.46967 11.4697C8.61032 11.329 8.80109 11.25 9 11.25H12C12.1483 11.25 12.2933 11.294 12.4166 11.3764C12.5399 11.4589 12.636 11.576 12.6928 11.713C12.7495 11.85 12.7644 12.0008 12.7354 12.1463C12.7065 12.2917 12.6351 12.4254 12.5303 12.5303L10.8105 14.25H12C12.1989 14.25 12.3897 14.329 12.5303 14.4697C12.671 14.6103 12.75 14.8011 12.75 15C12.75 15.1989 12.671 15.3897 12.5303 15.5303C12.3897 15.671 12.1989 15.75 12 15.75H9C8.85169 15.75 8.70671 15.706 8.58341 15.6236C8.4601 15.5411 8.36399 15.424 8.30724 15.287C8.25049 15.15 8.23564 14.9992 8.26456 14.8537C8.29349 14.7083 8.36489 14.5746 8.46975 14.4697L10.1895 12.75H9Z" fill="#CECECE"/>
</svg>
