<svg width="13" height="13" viewBox="0 0 13 13" fill="none" xmlns="http://www.w3.org/2000/svg">
<path d="M3.89062 7.01563C4.06771 7.01563 4.21625 6.95563 4.33625 6.83563C4.45625 6.71563 4.51604 6.56729 4.51562 6.39063C4.51562 6.21354 4.45562 6.065 4.33562 5.945C4.21562 5.825 4.06729 5.76521 3.89062 5.76563C3.71354 5.76563 3.565 5.82563 3.445 5.94563C3.325 6.06563 3.26521 6.21396 3.26562 6.39063C3.26562 6.56771 3.32563 6.71625 3.44563 6.83625C3.56563 6.95625 3.71396 7.01604 3.89062 7.01563ZM6.39063 7.01563C6.56771 7.01563 6.71625 6.95563 6.83625 6.83563C6.95625 6.71563 7.01604 6.56729 7.01563 6.39063C7.01563 6.21354 6.95563 6.065 6.83563 5.945C6.71563 5.825 6.56729 5.76521 6.39063 5.76563C6.21354 5.76563 6.065 5.82563 5.945 5.94563C5.825 6.06563 5.76521 6.21396 5.76563 6.39063C5.76563 6.56771 5.82563 6.71625 5.94563 6.83625C6.06563 6.95625 6.21396 7.01604 6.39063 7.01563ZM8.89063 7.01563C9.06771 7.01563 9.21625 6.95563 9.33625 6.83563C9.45625 6.71563 9.51604 6.56729 9.51563 6.39063C9.51563 6.21354 9.45563 6.065 9.33563 5.945C9.21563 5.825 9.06729 5.76521 8.89063 5.76563C8.71354 5.76563 8.565 5.82563 8.445 5.94563C8.325 6.06563 8.26521 6.21396 8.26563 6.39063C8.26563 6.56771 8.32563 6.71625 8.44563 6.83625C8.56563 6.95625 8.71396 7.01604 8.89063 7.01563ZM6.39063 12.0156C5.60938 12.0156 4.8775 11.8671 4.195 11.57C3.5125 11.2729 2.91875 10.8721 2.41375 10.3675C1.90875 9.86208 1.50792 9.26833 1.21125 8.58625C0.914583 7.90417 0.766042 7.17229 0.765625 6.39063C0.765625 5.60938 0.914167 4.8775 1.21125 4.195C1.50833 3.5125 1.90917 2.91875 2.41375 2.41375C2.91917 1.90875 3.51292 1.50792 4.195 1.21125C4.87708 0.914583 5.60896 0.766042 6.39063 0.765625C7.17188 0.765625 7.90375 0.914166 8.58625 1.21125C9.26875 1.50833 9.8625 1.90937 10.3675 2.41437C10.8725 2.91937 11.2735 3.51312 11.5706 4.19562C11.8677 4.87812 12.016 5.60979 12.0156 6.39063C12.0156 7.17188 11.8671 7.90375 11.57 8.58625C11.2729 9.26875 10.8721 9.8625 10.3675 10.3675C9.86208 10.8725 9.26833 11.2735 8.58625 11.5706C7.90417 11.8677 7.17229 12.016 6.39063 12.0156ZM0.171875 2.82813C0.0572916 2.71354 0 2.56771 0 2.39062C0 2.21354 0.0572916 2.06771 0.171875 1.95312L1.95312 0.171875C2.06771 0.0572916 2.21354 0 2.39062 0C2.56771 0 2.71354 0.0572916 2.82813 0.171875C2.94271 0.286458 3 0.432292 3 0.609375C3 0.786458 2.94271 0.932291 2.82813 1.04687L1.04688 2.82813C0.932292 2.94271 0.786458 3 0.609375 3C0.432292 3 0.286458 2.94271 0.171875 2.82813ZM12.6094 2.82813C12.4948 2.94271 12.349 3 12.1719 3C11.9948 3 11.849 2.94271 11.7344 2.82813L9.95313 1.04687C9.83854 0.932291 9.78125 0.786458 9.78125 0.609375C9.78125 0.432292 9.83854 0.286458 9.95313 0.171875C10.0677 0.0572916 10.2135 0 10.3906 0C10.5677 0 10.7135 0.0572916 10.8281 0.171875L12.6094 1.95312C12.724 2.06771 12.7813 2.21354 12.7813 2.39062C12.7813 2.56771 12.724 2.71354 12.6094 2.82813ZM6.39063 10.7656C7.60938 10.7656 8.64333 10.341 9.4925 9.49188C10.3417 8.64271 10.766 7.60896 10.7656 6.39063C10.7656 5.17188 10.341 4.13792 9.49188 3.28875C8.64271 2.43958 7.60896 2.01521 6.39063 2.01562C5.17188 2.01562 4.13792 2.44021 3.28875 3.28938C2.43958 4.13854 2.01521 5.17229 2.01562 6.39063C2.01562 7.60938 2.44021 8.64333 3.28938 9.4925C4.13854 10.3417 5.17229 10.766 6.39063 10.7656Z" fill="#CECECE"/>
</svg>
