<svg width="188" height="94" viewBox="0 0 188 94" fill="none" xmlns="http://www.w3.org/2000/svg">
<path d="M2 87C13.6883 73 64.6883 82.1393 113 90C155.857 96.9732 186 78.5 186 78.5" stroke="white" stroke-width="4" stroke-linecap="round" stroke-dasharray="8 8"/>
<path d="M127.864 42.8438H132.239L127.864 47.2188H132.239M134.427 34.0938H140.26L134.427 39.9271H140.26" stroke="white" stroke-width="1.5" stroke-linecap="round" stroke-linejoin="round"/>
<path d="M118.934 60.3627C118.809 60.2907 118.672 60.2439 118.53 60.2249C118.387 60.206 118.243 60.2152 118.104 60.2522C117.965 60.2892 117.835 60.3531 117.721 60.4404C117.607 60.5277 117.511 60.6365 117.439 60.7608C117.367 60.8851 117.32 61.0224 117.301 61.1648C117.282 61.3072 117.291 61.4519 117.328 61.5907C117.365 61.7295 117.429 61.8597 117.517 61.9737C117.604 62.0878 117.713 62.1836 117.837 62.2556L118.934 60.3627ZM112.099 56.5156C112.168 56.6452 112.262 56.7596 112.376 56.8519C112.49 56.9443 112.622 57.0127 112.763 57.0531C112.904 57.0935 113.052 57.105 113.198 57.0871C113.343 57.0691 113.484 57.022 113.611 56.9486C113.738 56.8751 113.849 56.7768 113.938 56.6595C114.026 56.5422 114.09 56.4084 114.125 56.2659C114.161 56.1235 114.167 55.9753 114.144 55.8303C114.121 55.6853 114.069 55.5464 113.991 55.4219L112.099 56.5156ZM139.167 48.6771C139.167 52.2547 137.745 55.6859 135.216 58.2157C132.686 60.7454 129.255 62.1667 125.677 62.1667V64.3542C134.335 64.3542 141.354 57.3352 141.354 48.6771H139.167ZM112.188 48.6771C112.188 45.0994 113.609 41.6683 116.139 39.1385C118.668 36.6087 122.099 35.1875 125.677 35.1875V33C117.019 33 110 40.019 110 48.6771H112.188ZM130.781 51.9583C128.557 51.9583 126.424 51.0749 124.852 49.5023C123.279 47.9297 122.396 45.7969 122.396 43.5729H120.208C120.208 46.377 121.322 49.0663 123.305 51.0491C125.288 53.0319 127.977 54.1458 130.781 54.1458V51.9583ZM137.964 47.9027C137.218 49.1407 136.164 50.1648 134.906 50.8754C133.647 51.5861 132.227 51.9591 130.781 51.9583V54.1458C132.603 54.1468 134.395 53.6767 135.982 52.781C137.568 51.8854 138.897 50.5948 139.838 49.0344L137.964 47.9027ZM122.396 43.5729C122.395 42.1277 122.768 40.7068 123.479 39.4483C124.19 38.1898 125.214 37.1365 126.451 36.3906L125.32 34.5181C123.76 35.4587 122.469 36.7868 121.573 38.3733C120.678 39.9599 120.207 41.751 120.208 43.5729H122.396ZM125.677 35.1875C125.529 35.184 125.389 35.1221 125.286 35.0154C125.224 34.9545 125.182 34.8754 125.167 34.7894C125.161 34.7442 125.164 34.6129 125.32 34.5181L126.451 36.3906C127.185 35.9473 127.421 35.135 127.335 34.4963C127.245 33.8327 126.723 33 125.677 33V35.1875ZM139.838 49.0344C139.741 49.1904 139.61 49.1933 139.565 49.1875C139.479 49.1724 139.4 49.1305 139.339 49.0679C139.232 48.9655 139.17 48.825 139.167 48.6771H141.354C141.354 47.6315 140.521 47.1094 139.858 47.019C139.219 46.9329 138.407 47.1692 137.964 47.9027L139.838 49.0344ZM125.677 62.1667C123.31 62.1706 120.983 61.5482 118.934 60.3627L117.837 62.2556C120.22 63.6342 122.924 64.3581 125.677 64.3542V62.1667ZM113.991 55.4219C112.806 53.3721 112.183 51.0451 112.188 48.6771H110C109.996 51.4293 110.72 54.1336 112.099 56.5156L113.991 55.4219Z" fill="white"/>
<path d="M13.632 18.688H27.072C29.1627 18.688 31.1467 18.9013 33.024 19.328C34.944 19.712 36.6293 20.3947 38.08 21.376C39.5733 22.3147 40.7467 23.5947 41.6 25.216C42.496 26.7947 42.944 28.7573 42.944 31.104C42.944 33.5787 42.4747 35.6267 41.536 37.248C40.5973 38.8693 39.3813 40.1493 37.888 41.088C36.4373 42.0267 34.8373 42.688 33.088 43.072C31.3387 43.456 29.6747 43.648 28.096 43.648H19.008V64H13.632V18.688ZM19.008 38.656H28.096C30.784 38.656 32.96 38.0587 34.624 36.864C36.3307 35.6267 37.184 33.728 37.184 31.168C37.184 28.608 36.3307 26.7307 34.624 25.536C32.96 24.2987 30.784 23.68 28.096 23.68H19.008V38.656Z" fill="white"/>
<path d="M72.488 58.56C70.696 60.864 68.7333 62.4853 66.6 63.424C64.4667 64.32 61.992 64.768 59.176 64.768C56.8293 64.768 54.7173 64.3627 52.84 63.552C50.9627 62.6987 49.3627 61.568 48.04 60.16C46.76 58.752 45.7573 57.088 45.032 55.168C44.3493 53.248 44.008 51.2 44.008 49.024C44.008 46.72 44.392 44.608 45.16 42.688C45.928 40.7253 46.9947 39.0613 48.36 37.696C49.7253 36.288 51.3467 35.2 53.224 34.432C55.1013 33.664 57.1493 33.28 59.368 33.28C61.4587 33.28 63.3787 33.6427 65.128 34.368C66.8773 35.0507 68.3707 36.0747 69.608 37.44C70.888 38.7627 71.8693 40.4053 72.552 42.368C73.2347 44.288 73.576 46.4853 73.576 48.96V50.56H49.384C49.4693 51.84 49.768 53.0773 50.28 54.272C50.8347 55.424 51.5387 56.448 52.392 57.344C53.2453 58.1973 54.248 58.88 55.4 59.392C56.552 59.904 57.8107 60.16 59.176 60.16C61.352 60.16 63.1867 59.776 64.68 59.008C66.1733 58.24 67.5173 57.1093 68.712 55.616L72.488 58.56ZM68.2 46.336C68.1147 43.776 67.2827 41.728 65.704 40.192C64.1253 38.656 61.9493 37.888 59.176 37.888C56.4027 37.888 54.1627 38.656 52.456 40.192C50.7493 41.728 49.7253 43.776 49.384 46.336H68.2Z" fill="white"/>
<path d="M80.352 37.888C81.888 36.3093 83.7013 35.1573 85.792 34.432C87.9253 33.664 90.08 33.28 92.256 33.28C96.6933 33.28 99.8933 34.3253 101.856 36.416C103.819 38.5067 104.8 41.6853 104.8 45.952V58.816C104.8 59.6693 104.843 60.5653 104.928 61.504C105.013 62.4 105.12 63.232 105.248 64H100.448C100.277 63.3173 100.171 62.5707 100.128 61.76C100.128 60.9067 100.128 60.16 100.128 59.52H100C99.0187 61.056 97.696 62.3147 96.032 63.296C94.4107 64.2773 92.448 64.768 90.144 64.768C88.608 64.768 87.1573 64.576 85.792 64.192C84.4693 63.808 83.296 63.2533 82.272 62.528C81.2907 61.76 80.5013 60.8213 79.904 59.712C79.3067 58.6027 79.008 57.3227 79.008 55.872C79.008 53.3973 79.648 51.456 80.928 50.048C82.208 48.64 83.7867 47.5947 85.664 46.912C87.584 46.2293 89.632 45.8027 91.808 45.632C94.0267 45.4613 96.0533 45.376 97.888 45.376H99.808V44.48C99.808 42.304 99.1467 40.6613 97.824 39.552C96.544 38.4427 94.7307 37.888 92.384 37.888C90.7627 37.888 89.1627 38.1653 87.584 38.72C86.048 39.232 84.6827 40.0427 83.488 41.152L80.352 37.888ZM94.816 49.6C91.616 49.6 89.0773 50.048 87.2 50.944C85.3227 51.84 84.384 53.312 84.384 55.36C84.384 57.2373 85.0027 58.5813 86.24 59.392C87.52 60.16 89.0987 60.544 90.976 60.544C92.4267 60.544 93.6853 60.3093 94.752 59.84C95.8613 59.328 96.7787 58.6667 97.504 57.856C98.2293 57.0453 98.784 56.1067 99.168 55.04C99.552 53.9307 99.7653 52.7573 99.808 51.52V49.6H94.816Z" fill="white"/>
<path d="M174.488 58.56C172.696 60.864 170.733 62.4853 168.6 63.424C166.467 64.32 163.992 64.768 161.176 64.768C158.829 64.768 156.717 64.3627 154.84 63.552C152.963 62.6987 151.363 61.568 150.04 60.16C148.76 58.752 147.757 57.088 147.032 55.168C146.349 53.248 146.008 51.2 146.008 49.024C146.008 46.72 146.392 44.608 147.16 42.688C147.928 40.7253 148.995 39.0613 150.36 37.696C151.725 36.288 153.347 35.2 155.224 34.432C157.101 33.664 159.149 33.28 161.368 33.28C163.459 33.28 165.379 33.6427 167.128 34.368C168.877 35.0507 170.371 36.0747 171.608 37.44C172.888 38.7627 173.869 40.4053 174.552 42.368C175.235 44.288 175.576 46.4853 175.576 48.96V50.56H151.384C151.469 51.84 151.768 53.0773 152.28 54.272C152.835 55.424 153.539 56.448 154.392 57.344C155.245 58.1973 156.248 58.88 157.4 59.392C158.552 59.904 159.811 60.16 161.176 60.16C163.352 60.16 165.187 59.776 166.68 59.008C168.173 58.24 169.517 57.1093 170.712 55.616L174.488 58.56ZM170.2 46.336C170.115 43.776 169.283 41.728 167.704 40.192C166.125 38.656 163.949 37.888 161.176 37.888C158.403 37.888 156.163 38.656 154.456 40.192C152.749 41.728 151.725 43.776 151.384 46.336H170.2Z" fill="white"/>
</svg>
