<svg width="15" height="15" viewBox="0 0 15 15" fill="none" xmlns="http://www.w3.org/2000/svg">
<path d="M1.25 11.875V8.125C1.25 7.84375 1.30729 7.58854 1.42188 7.35937C1.53646 7.13021 1.6875 6.92708 1.875 6.75V5C1.875 4.47917 2.05729 4.03646 2.42188 3.67188C2.78646 3.30729 3.22917 3.125 3.75 3.125H6.25C6.48958 3.125 6.71354 3.16937 6.92187 3.25812C7.13021 3.34687 7.32292 3.46917 7.5 3.625C7.67708 3.46875 7.86979 3.34646 8.07813 3.25812C8.28646 3.16979 8.51042 3.12542 8.75 3.125H11.25C11.7708 3.125 12.2135 3.30729 12.5781 3.67188C12.9427 4.03646 13.125 4.47917 13.125 5V6.75C13.3125 6.92708 13.4635 7.13021 13.5781 7.35937C13.6927 7.58854 13.75 7.84375 13.75 8.125V11.875H12.5V10.625H2.5V11.875H1.25ZM8.125 6.25H11.875V5C11.875 4.82292 11.815 4.67438 11.695 4.55438C11.575 4.43438 11.4267 4.37458 11.25 4.375H8.75C8.57292 4.375 8.42437 4.435 8.30437 4.555C8.18437 4.675 8.12458 4.82333 8.125 5V6.25ZM3.125 6.25H6.875V5C6.875 4.82292 6.815 4.67438 6.695 4.55438C6.575 4.43438 6.42667 4.37458 6.25 4.375H3.75C3.57292 4.375 3.42438 4.435 3.30438 4.555C3.18438 4.675 3.12458 4.82333 3.125 5V6.25ZM2.5 9.375H12.5V8.125C12.5 7.94792 12.44 7.79937 12.32 7.67937C12.2 7.55937 12.0517 7.49958 11.875 7.5H3.125C2.94792 7.5 2.79938 7.56 2.67938 7.68C2.55938 7.8 2.49958 7.94833 2.5 8.125V9.375Z" fill="#CECECE"/>
</svg>
