<svg width="118" height="118" viewBox="0 0 118 118" fill="none" xmlns="http://www.w3.org/2000/svg">
<path d="M67.2324 37.0465H83.6975L67.2324 53.5116H83.6975M91.9301 4.11627H113.884L91.9301 26.0697H113.884" stroke="white" stroke-width="1.5" stroke-linecap="round" stroke-linejoin="round"/>
<path d="M33.6218 102.978C33.154 102.707 32.6375 102.531 32.1016 102.46C31.5658 102.388 31.0211 102.423 30.4987 102.562C29.9763 102.701 29.4865 102.942 29.0571 103.271C28.6277 103.599 28.2672 104.009 27.9962 104.477C27.7252 104.944 27.549 105.461 27.4777 105.997C27.4063 106.533 27.4412 107.077 27.5803 107.6C27.7194 108.122 27.9601 108.612 28.2885 109.041C28.617 109.471 29.0268 109.831 29.4946 110.102L33.6218 102.978ZM7.89782 88.4999C8.15754 88.9877 8.51279 89.4181 8.9424 89.7656C9.372 90.1131 9.86717 90.3705 10.3984 90.5226C10.9296 90.6746 11.486 90.7181 12.0344 90.6506C12.5828 90.583 13.112 90.4057 13.5904 90.1293C14.0689 89.8528 14.4867 89.4829 14.8191 89.0415C15.1516 88.6001 15.3917 88.0964 15.5253 87.5602C15.6588 87.024 15.6831 86.4665 15.5966 85.9207C15.5101 85.375 15.3146 84.8522 15.0217 84.3837L7.89782 88.4999ZM109.767 59C109.767 72.4643 104.419 85.3772 94.898 94.8979C85.3773 104.419 72.4644 109.767 59 109.767V118C91.5845 118 118 91.5844 118 59H109.767ZM8.23261 59C8.23261 45.5356 13.5813 32.6227 23.102 23.102C32.6228 13.5812 45.5357 8.23255 59 8.23255V0C26.4156 0 6.17474e-05 26.4155 6.17474e-05 59H8.23261ZM78.2093 71.3488C69.8396 71.3488 61.8127 68.0239 55.8944 62.1056C49.9761 56.1873 46.6512 48.1604 46.6512 39.7907H38.4186C38.4186 50.3438 42.6109 60.4647 50.0731 67.9269C57.5353 75.3891 67.6562 79.5814 78.2093 79.5814V71.3488ZM105.24 56.0856C102.433 60.7448 98.4688 64.5988 93.7324 67.2733C88.9961 69.9477 83.6486 71.3517 78.2093 71.3488V79.5814C85.0667 79.585 91.8086 77.8156 97.7804 74.445C103.752 71.0744 108.751 66.2171 112.292 60.3446L105.24 56.0856ZM46.6512 39.7907C46.6488 34.3515 48.053 29.0042 50.7274 24.268C53.4018 19.5317 57.2556 15.5676 61.9144 12.7605L57.6554 5.71339C51.7833 9.25334 46.9262 14.2514 43.5556 20.2223C40.185 26.1932 38.4154 32.9341 38.4186 39.7907H46.6512ZM59 8.23255C58.4434 8.21943 57.9147 7.98661 57.5291 7.58493C57.2935 7.3557 57.136 7.05804 57.0791 6.73423C57.0571 6.56409 57.0681 6.07014 57.6554 5.71339L61.9144 12.7605C64.675 11.092 65.5641 8.03497 65.2403 5.63107C64.9 3.13386 62.9352 0 59 0V8.23255ZM112.292 60.3446C111.93 60.9319 111.436 60.9429 111.266 60.9209C110.942 60.864 110.644 60.7065 110.415 60.4708C110.013 60.0853 109.781 59.5566 109.767 59H118C118 55.0648 114.866 53.1 112.369 52.7597C109.965 52.4359 106.908 53.325 105.24 56.0856L112.292 60.3446ZM59 109.767C50.0899 109.782 41.3344 107.44 33.6218 102.978L29.4946 110.102C38.4613 115.29 48.6406 118.015 59 118V109.767ZM15.0217 84.3837C10.5592 76.6694 8.2169 67.9119 8.23261 59H6.17474e-05C-0.0149563 69.3577 2.70976 79.5352 7.89782 88.4999L15.0217 84.3837Z" fill="white"/>
</svg>
